<mxfile host="app.diagrams.net" modified="2022-03-08T08:53:44.019Z" agent="5.0 (Macintosh; Intel Mac OS X 10_15_7) AppleWebKit/605.1.15 (KHTML, like Gecko) Version/15.2 Safari/605.1.15" etag="IqE9R_zLA4SaB4GqUFEy" version="16.6.7" type="github">
  <diagram id="C5RBs43oDa-KdzZeNtuy" name="Page-1">
    <mxGraphModel dx="2040" dy="902" grid="1" gridSize="10" guides="1" tooltips="1" connect="1" arrows="1" fold="1" page="1" pageScale="1" pageWidth="827" pageHeight="1169" math="0" shadow="0">
      <root>
        <mxCell id="WIyWlLk6GJQsqaUBKTNV-0" />
        <mxCell id="WIyWlLk6GJQsqaUBKTNV-1" parent="WIyWlLk6GJQsqaUBKTNV-0" />
        <mxCell id="xyc1oHUzZBv7kjJxeI7Q-5" value="&lt;p style=&quot;margin: 0px ; margin-top: 4px ; text-align: center&quot;&gt;&lt;i&gt;&amp;lt;&amp;lt;Interface&amp;gt;&amp;gt;&lt;/i&gt;&lt;br&gt;&lt;b&gt;FailureReasonProtocol&lt;/b&gt;&lt;/p&gt;&lt;hr size=&quot;1&quot;&gt;&lt;p style=&quot;margin: 0px ; font-stretch: normal ; font-size: 14px ; line-height: normal ; font-family: &amp;#34;menlo&amp;#34; ; background-color: rgb(255 , 255 , 255)&quot;&gt;&lt;span style=&quot;color: rgba(0 , 0 , 0 , 0.85)&quot;&gt;&amp;nbsp;&lt;/span&gt;&lt;span style=&quot;color: rgb(15 , 104 , 160)&quot;&gt;detailCode&lt;span style=&quot;color: rgba(0 , 0 , 0 , 0.85)&quot;&gt;:&amp;nbsp;&lt;/span&gt;&lt;span style=&quot;color: rgb(57 , 0 , 160)&quot;&gt;String&lt;/span&gt;&lt;/span&gt;&lt;/p&gt;&lt;p style=&quot;margin: 0px ; font-stretch: normal ; font-size: 14px ; line-height: normal ; font-family: &amp;#34;menlo&amp;#34; ; color: rgba(0 , 0 , 0 , 0.85) ; background-color: rgb(255 , 255 , 255)&quot;&gt;&amp;nbsp;&lt;span style=&quot;color: rgb(15 , 104 , 160)&quot;&gt;message&lt;/span&gt;:&amp;nbsp;&lt;span style=&quot;color: rgb(57 , 0 , 160)&quot;&gt;String&lt;/span&gt;&lt;/p&gt;&lt;p style=&quot;margin: 0px ; font-stretch: normal ; font-size: 14px ; line-height: normal ; font-family: &amp;#34;menlo&amp;#34; ; color: rgba(0 , 0 , 0 , 0.85) ; background-color: rgb(255 , 255 , 255)&quot;&gt;&amp;nbsp;&lt;span style=&quot;color: rgb(15 , 104 , 160)&quot;&gt;data&lt;/span&gt;: [&lt;span style=&quot;color: rgb(57 , 0 , 160)&quot;&gt;String&lt;/span&gt;:&amp;nbsp;&lt;span style=&quot;color: rgb(155 , 35 , 147)&quot;&gt;Any&lt;/span&gt;]?&lt;/p&gt;&lt;hr size=&quot;1&quot;&gt;&lt;p style=&quot;margin: 0px ; font-stretch: normal ; font-size: 14px ; line-height: normal ; font-family: &amp;#34;menlo&amp;#34; ; color: rgb(15 , 104 , 160) ; background-color: rgb(255 , 255 , 255)&quot;&gt;&lt;span style=&quot;color: #9b2393&quot;&gt;func&lt;/span&gt;&lt;span style=&quot;color: rgba(0 , 0 , 0 , 0.85)&quot;&gt; &lt;/span&gt;hasTheSameDetailCode&lt;span style=&quot;color: rgba(0 , 0 , 0 , 0.85)&quot;&gt;(&lt;/span&gt;as&lt;span style=&quot;color: rgba(0 , 0 , 0 , 0.85)&quot;&gt; theOther: &lt;/span&gt;&lt;span style=&quot;color: #1c464a&quot;&gt;FailureReasonProtocol&lt;/span&gt;&lt;span style=&quot;color: rgba(0 , 0 , 0 , 0.85)&quot;&gt;)&lt;/span&gt;&lt;/p&gt;" style="verticalAlign=top;align=left;overflow=fill;fontSize=12;fontFamily=Helvetica;html=1;" vertex="1" parent="WIyWlLk6GJQsqaUBKTNV-1">
          <mxGeometry x="740" y="370" width="580" height="140" as="geometry" />
        </mxCell>
        <mxCell id="xyc1oHUzZBv7kjJxeI7Q-32" value="" style="edgeStyle=orthogonalEdgeStyle;rounded=0;orthogonalLoop=1;jettySize=auto;html=1;endArrow=block;endFill=0;dashed=1;exitX=0.395;exitY=-0.004;exitDx=0;exitDy=0;exitPerimeter=0;" edge="1" parent="WIyWlLk6GJQsqaUBKTNV-1" source="xyc1oHUzZBv7kjJxeI7Q-27" target="xyc1oHUzZBv7kjJxeI7Q-5">
          <mxGeometry relative="1" as="geometry">
            <Array as="points">
              <mxPoint x="1020" y="500" />
              <mxPoint x="1020" y="500" />
            </Array>
          </mxGeometry>
        </mxCell>
        <mxCell id="xyc1oHUzZBv7kjJxeI7Q-36" style="edgeStyle=orthogonalEdgeStyle;rounded=0;orthogonalLoop=1;jettySize=auto;html=1;entryX=0;entryY=0.75;entryDx=0;entryDy=0;endArrow=block;endFill=0;dashed=1;" edge="1" parent="WIyWlLk6GJQsqaUBKTNV-1" source="xyc1oHUzZBv7kjJxeI7Q-13" target="xyc1oHUzZBv7kjJxeI7Q-5">
          <mxGeometry relative="1" as="geometry">
            <Array as="points">
              <mxPoint x="570" y="475" />
            </Array>
          </mxGeometry>
        </mxCell>
        <mxCell id="xyc1oHUzZBv7kjJxeI7Q-13" value="&lt;p style=&quot;margin: 0px ; margin-top: 4px ; text-align: center&quot;&gt;&lt;br&gt;&lt;b&gt;FailureReason&lt;/b&gt;&lt;/p&gt;&lt;hr size=&quot;1&quot;&gt;&lt;p style=&quot;margin: 0px ; font-stretch: normal ; font-size: 14px ; line-height: normal ; font-family: &amp;#34;menlo&amp;#34; ; background-color: rgb(255 , 255 , 255)&quot;&gt;&lt;/p&gt;&lt;p style=&quot;margin: 0px ; margin-left: 4px&quot;&gt;&lt;br&gt;&lt;/p&gt;&lt;p style=&quot;margin: 0px ; font-stretch: normal ; font-size: 14px ; line-height: normal ; font-family: &amp;#34;menlo&amp;#34; ; color: rgb(155 , 35 , 147) ; background-color: rgb(255 , 255 , 255)&quot;&gt;static&lt;span style=&quot;color: rgba(0 , 0 , 0 , 0.85)&quot;&gt; &lt;/span&gt;let&lt;span style=&quot;color: rgba(0 , 0 , 0 , 0.85)&quot;&gt; &lt;/span&gt;&lt;span style=&quot;color: #0f68a0&quot;&gt;empty&lt;/span&gt;&lt;span style=&quot;color: rgba(0 , 0 , 0 , 0.85)&quot;&gt;: &lt;/span&gt;Self&lt;/p&gt;" style="verticalAlign=top;align=left;overflow=fill;fontSize=12;fontFamily=Helvetica;html=1;" vertex="1" parent="WIyWlLk6GJQsqaUBKTNV-1">
          <mxGeometry x="430" y="640" width="220" height="90" as="geometry" />
        </mxCell>
        <mxCell id="xyc1oHUzZBv7kjJxeI7Q-37" style="edgeStyle=orthogonalEdgeStyle;rounded=0;orthogonalLoop=1;jettySize=auto;html=1;entryX=1;entryY=0.5;entryDx=0;entryDy=0;dashed=1;endArrow=block;endFill=0;" edge="1" parent="WIyWlLk6GJQsqaUBKTNV-1" source="xyc1oHUzZBv7kjJxeI7Q-14" target="xyc1oHUzZBv7kjJxeI7Q-5">
          <mxGeometry relative="1" as="geometry">
            <Array as="points">
              <mxPoint x="1600" y="440" />
            </Array>
          </mxGeometry>
        </mxCell>
        <mxCell id="xyc1oHUzZBv7kjJxeI7Q-14" value="&lt;p style=&quot;margin: 0px ; margin-top: 4px ; text-align: center&quot;&gt;&lt;br&gt;&lt;b&gt;CommunityFailureReason&lt;/b&gt;&lt;/p&gt;&lt;hr size=&quot;1&quot;&gt;&lt;p style=&quot;margin: 0px ; font-stretch: normal ; font-size: 14px ; line-height: normal ; font-family: &amp;#34;menlo&amp;#34; ; background-color: rgb(255 , 255 , 255)&quot;&gt;&lt;/p&gt;&lt;span style=&quot;color: rgb(155 , 35 , 147) ; font-family: &amp;#34;menlo&amp;#34; ; font-size: 14px ; background-color: rgb(255 , 255 , 255)&quot;&gt;&amp;nbsp;case&amp;nbsp;&lt;/span&gt;&lt;span style=&quot;color: rgb(15 , 104 , 160) ; font-family: &amp;#34;menlo&amp;#34; ; font-size: 14px ; background-color: rgb(255 , 255 , 255)&quot;&gt;duplicatedReport&lt;/span&gt;&lt;span style=&quot;color: rgb(155 , 35 , 147) ; font-family: &amp;#34;menlo&amp;#34; ; font-size: 14px ; background-color: rgb(255 , 255 , 255)&quot;&gt;&lt;br&gt;&lt;/span&gt;&lt;span style=&quot;color: rgb(155 , 35 , 147) ; font-family: &amp;#34;menlo&amp;#34; ; font-size: 14px ; background-color: rgb(255 , 255 , 255)&quot;&gt;&amp;nbsp;case&amp;nbsp;&lt;/span&gt;&lt;span style=&quot;color: rgb(15 , 104 , 160) ; font-family: &amp;#34;menlo&amp;#34; ; font-size: 14px ; background-color: rgb(255 , 255 , 255)&quot;&gt;duplicatedNickname&lt;/span&gt;&lt;span style=&quot;color: rgb(155 , 35 , 147) ; font-family: &amp;#34;menlo&amp;#34; ; font-size: 14px ; background-color: rgb(255 , 255 , 255)&quot;&gt;&lt;br&gt;&lt;/span&gt;" style="verticalAlign=top;align=left;overflow=fill;fontSize=12;fontFamily=Helvetica;html=1;" vertex="1" parent="WIyWlLk6GJQsqaUBKTNV-1">
          <mxGeometry x="1460" y="620" width="280" height="95" as="geometry" />
        </mxCell>
        <mxCell id="xyc1oHUzZBv7kjJxeI7Q-34" value="" style="edgeStyle=orthogonalEdgeStyle;rounded=0;orthogonalLoop=1;jettySize=auto;html=1;endArrow=classic;endFill=1;" edge="1" parent="WIyWlLk6GJQsqaUBKTNV-1" source="xyc1oHUzZBv7kjJxeI7Q-25" target="xyc1oHUzZBv7kjJxeI7Q-26">
          <mxGeometry relative="1" as="geometry" />
        </mxCell>
        <mxCell id="xyc1oHUzZBv7kjJxeI7Q-35" style="edgeStyle=orthogonalEdgeStyle;rounded=0;orthogonalLoop=1;jettySize=auto;html=1;entryX=0;entryY=0.25;entryDx=0;entryDy=0;endArrow=classic;endFill=1;" edge="1" parent="WIyWlLk6GJQsqaUBKTNV-1" source="xyc1oHUzZBv7kjJxeI7Q-25" target="xyc1oHUzZBv7kjJxeI7Q-5">
          <mxGeometry relative="1" as="geometry" />
        </mxCell>
        <mxCell id="xyc1oHUzZBv7kjJxeI7Q-25" value="&lt;p style=&quot;margin: 0px ; margin-top: 4px ; text-align: center&quot;&gt;&lt;br&gt;&lt;b&gt;FailureResult&lt;/b&gt;&lt;/p&gt;&lt;hr size=&quot;1&quot;&gt;&lt;p style=&quot;margin: 0px ; font-stretch: normal ; font-size: 14px ; line-height: normal ; font-family: &amp;#34;menlo&amp;#34; ; color: rgb(15 , 104 , 160)&quot;&gt;&lt;span style=&quot;background-color: #ffffff&quot;&gt;&amp;nbsp;error&lt;/span&gt;&lt;span style=&quot;color: rgba(0 , 0 , 0 , 0.85) ; background-color: #ffffff&quot;&gt;: &lt;/span&gt;&lt;span style=&quot;color: #3900a0 ; background-color: #ffffff&quot;&gt;Error&lt;/span&gt;&lt;/p&gt;&lt;p style=&quot;margin: 0px ; font-stretch: normal ; font-size: 14px ; line-height: normal ; font-family: &amp;#34;menlo&amp;#34; ; color: rgb(15 , 104 , 160)&quot;&gt;&lt;span style=&quot;background-color: #ffffff&quot;&gt;&amp;nbsp;statusCode&lt;/span&gt;&lt;span style=&quot;color: rgba(0 , 0 , 0 , 0.85) ; background-color: #ffffff&quot;&gt;: &lt;/span&gt;&lt;span style=&quot;color: #1c464a ; background-color: #ffffff&quot;&gt;UIntNumber&lt;/span&gt;&lt;/p&gt;&lt;p style=&quot;margin: 0px ; font-stretch: normal ; font-size: 14px ; line-height: normal ; font-family: &amp;#34;menlo&amp;#34; ; color: rgb(28 , 70 , 74) ; background-color: rgb(255 , 255 , 255)&quot;&gt;&lt;span style=&quot;color: #0f68a0&quot;&gt;&amp;nbsp;reason&lt;/span&gt;&lt;span style=&quot;color: rgba(0 , 0 , 0 , 0.85)&quot;&gt;: &lt;/span&gt;FailureReasonProtocol&lt;/p&gt;&lt;hr size=&quot;1&quot;&gt;&lt;p style=&quot;margin: 0px ; margin-left: 4px&quot;&gt;&lt;br&gt;&lt;/p&gt;" style="verticalAlign=top;align=left;overflow=fill;fontSize=12;fontFamily=Helvetica;html=1;" vertex="1" parent="WIyWlLk6GJQsqaUBKTNV-1">
          <mxGeometry x="400" y="120" width="280" height="140" as="geometry" />
        </mxCell>
        <mxCell id="xyc1oHUzZBv7kjJxeI7Q-26" value="&lt;p style=&quot;margin: 0px ; margin-top: 4px ; text-align: center&quot;&gt;&lt;br&gt;&lt;b&gt;UIntNumber&lt;/b&gt;&lt;/p&gt;&lt;hr size=&quot;1&quot;&gt;&lt;p style=&quot;margin: 0px ; font-stretch: normal ; font-size: 14px ; line-height: normal ; font-family: &amp;#34;menlo&amp;#34; ; color: rgb(15 , 104 , 160) ; background-color: rgb(255 , 255 , 255)&quot;&gt;&lt;span style=&quot;color: #9b2393&quot;&gt;&amp;nbsp;case&lt;/span&gt;&lt;span style=&quot;color: rgba(0 , 0 , 0 , 0.85)&quot;&gt; &lt;/span&gt;invalid&lt;/p&gt;&lt;p style=&quot;margin: 0px ; font-stretch: normal ; font-size: 14px ; line-height: normal ; font-family: &amp;#34;menlo&amp;#34; ; color: rgba(0 , 0 , 0 , 0.85) ; background-color: rgb(255 , 255 , 255)&quot;&gt;&lt;span style=&quot;color: #9b2393&quot;&gt;&amp;nbsp;case&lt;/span&gt; &lt;span style=&quot;color: #0f68a0&quot;&gt;valid&lt;/span&gt;(&lt;span style=&quot;color: #3900a0&quot;&gt;UInt&lt;/span&gt;)&lt;/p&gt;&lt;p style=&quot;margin: 0px ; font-stretch: normal ; font-size: 14px ; line-height: normal ; font-family: &amp;#34;menlo&amp;#34; ; color: rgb(15 , 104 , 160) ; background-color: rgb(255 , 255 , 255)&quot;&gt;&amp;nbsp;&lt;/p&gt;&lt;p style=&quot;margin: 0px ; font-stretch: normal ; font-size: 14px ; line-height: normal ; font-family: &amp;#34;menlo&amp;#34; ; color: rgb(15 , 104 , 160) ; background-color: rgb(255 , 255 , 255)&quot;&gt;&amp;nbsp;intValue: Int&lt;/p&gt;&lt;hr size=&quot;1&quot;&gt;&lt;p style=&quot;margin: 0px ; font-stretch: normal ; font-size: 14px ; line-height: normal ; font-family: &amp;#34;menlo&amp;#34; ; color: rgba(0 , 0 , 0 , 0.85) ; background-color: rgb(255 , 255 , 255)&quot;&gt;&lt;span style=&quot;color: #9b2393&quot;&gt;&amp;nbsp;init&lt;/span&gt;(&lt;span style=&quot;color: #0f68a0&quot;&gt;_&lt;/span&gt; number: &lt;span style=&quot;color: #3900a0&quot;&gt;Int&lt;/span&gt;?)&lt;/p&gt;" style="verticalAlign=top;align=left;overflow=fill;fontSize=12;fontFamily=Helvetica;html=1;" vertex="1" parent="WIyWlLk6GJQsqaUBKTNV-1">
          <mxGeometry x="740" y="120" width="270" height="140" as="geometry" />
        </mxCell>
        <mxCell id="xyc1oHUzZBv7kjJxeI7Q-27" value="&lt;p style=&quot;margin: 0px ; margin-top: 4px ; text-align: center&quot;&gt;&lt;b&gt;&lt;br&gt;&lt;/b&gt;&lt;/p&gt;&lt;p style=&quot;margin: 0px ; margin-top: 4px ; text-align: center&quot;&gt;&lt;b&gt;UserAuthenticationFailureReason&lt;/b&gt;&lt;/p&gt;&lt;p style=&quot;margin: 0px ; font-stretch: normal ; font-size: 14px ; line-height: normal ; font-family: &amp;#34;menlo&amp;#34; ; background-color: rgb(255 , 255 , 255)&quot;&gt;&lt;/p&gt;&lt;p style=&quot;margin: 0px ; font-stretch: normal ; font-size: 14px ; line-height: normal ; font-family: &amp;#34;menlo&amp;#34; ; color: rgb(93 , 108 , 121) ; background-color: rgb(255 , 255 , 255)&quot;&gt;&lt;span style=&quot;color: rgba(0 , 0 , 0 , 0.85)&quot;&gt;&amp;nbsp; &amp;nbsp;&amp;nbsp;&lt;/span&gt;&lt;/p&gt;&lt;p style=&quot;margin: 0px ; font-stretch: normal ; font-size: 14px ; line-height: normal ; font-family: &amp;#34;menlo&amp;#34; ; color: rgb(93 , 108 , 121) ; background-color: rgb(255 , 255 , 255)&quot;&gt;&lt;span style=&quot;color: #9b2393&quot;&gt;&lt;br&gt;&lt;/span&gt;&lt;/p&gt;&lt;p style=&quot;margin: 0px ; font-stretch: normal ; font-size: 14px ; line-height: normal ; font-family: &amp;#34;menlo&amp;#34; ; color: rgb(93 , 108 , 121) ; background-color: rgb(255 , 255 , 255)&quot;&gt;&lt;span style=&quot;color: #9b2393&quot;&gt;&amp;nbsp; &amp;nbsp; case&lt;/span&gt;&lt;span style=&quot;color: rgba(0 , 0 , 0 , 0.85)&quot;&gt; &lt;/span&gt;&lt;span style=&quot;color: #0f68a0&quot;&gt;hasAuthenticatedSNSAccount&lt;/span&gt;&lt;/p&gt;&lt;br&gt;&lt;p style=&quot;margin: 0px ; font-stretch: normal ; font-size: 14px ; line-height: normal ; font-family: &amp;#34;menlo&amp;#34; ; color: rgb(15 , 104 , 160) ; background-color: rgb(255 , 255 , 255)&quot;&gt;&lt;span style=&quot;color: rgba(0 , 0 , 0 , 0.85)&quot;&gt;&amp;nbsp; &amp;nbsp; &lt;/span&gt;&lt;span style=&quot;color: #9b2393&quot;&gt;case&lt;/span&gt;&lt;span style=&quot;color: rgba(0 , 0 , 0 , 0.85)&quot;&gt; &lt;/span&gt;notMatchedPassword&lt;/p&gt;&lt;br&gt;&lt;p style=&quot;margin: 0px ; font-stretch: normal ; font-size: 14px ; line-height: normal ; font-family: &amp;#34;menlo&amp;#34; ; color: rgb(15 , 104 , 160) ; background-color: rgb(255 , 255 , 255)&quot;&gt;&lt;span style=&quot;color: rgba(0 , 0 , 0 , 0.85)&quot;&gt;&amp;nbsp; &amp;nbsp; &lt;/span&gt;&lt;span style=&quot;color: #9b2393&quot;&gt;case&lt;/span&gt;&lt;span style=&quot;color: rgba(0 , 0 , 0 , 0.85)&quot;&gt; &lt;/span&gt;retryForDormantAccount&lt;/p&gt;&lt;br&gt;&lt;p style=&quot;margin: 0px ; font-stretch: normal ; font-size: 14px ; line-height: normal ; font-family: &amp;#34;menlo&amp;#34; ; color: rgb(15 , 104 , 160) ; background-color: rgb(255 , 255 , 255)&quot;&gt;&lt;span style=&quot;color: rgba(0 , 0 , 0 , 0.85)&quot;&gt;&amp;nbsp; &amp;nbsp; &lt;/span&gt;&lt;span style=&quot;color: #9b2393&quot;&gt;case&lt;/span&gt;&lt;span style=&quot;color: rgba(0 , 0 , 0 , 0.85)&quot;&gt; &lt;/span&gt;hasEmailAccountsCanBeLinked&lt;/p&gt;&lt;br&gt;&lt;p style=&quot;margin: 0px ; font-stretch: normal ; font-size: 14px ; line-height: normal ; font-family: &amp;#34;menlo&amp;#34; ; color: rgb(15 , 104 , 160) ; background-color: rgb(255 , 255 , 255)&quot;&gt;&lt;span style=&quot;color: rgba(0 , 0 , 0 , 0.85)&quot;&gt;&amp;nbsp; &amp;nbsp; &lt;/span&gt;&lt;span style=&quot;color: #9b2393&quot;&gt;case&lt;/span&gt;&lt;span style=&quot;color: rgba(0 , 0 , 0 , 0.85)&quot;&gt; &lt;/span&gt;hasSNSAccountsCanBeLinked&lt;/p&gt;&lt;br&gt;&lt;p style=&quot;margin: 0px ; font-stretch: normal ; font-size: 14px ; line-height: normal ; font-family: &amp;#34;menlo&amp;#34; ; color: rgb(15 , 104 , 160) ; background-color: rgb(255 , 255 , 255)&quot;&gt;&lt;span style=&quot;color: rgba(0 , 0 , 0 , 0.85)&quot;&gt;&amp;nbsp; &amp;nbsp; &lt;/span&gt;&lt;span style=&quot;color: #9b2393&quot;&gt;case&lt;/span&gt;&lt;span style=&quot;color: rgba(0 , 0 , 0 , 0.85)&quot;&gt; &lt;/span&gt;alreadyLinkedToAnotherAccount&lt;/p&gt;&lt;br&gt;&lt;p style=&quot;margin: 0px ; font-stretch: normal ; font-size: 14px ; line-height: normal ; font-family: &amp;#34;menlo&amp;#34; ; color: rgb(15 , 104 , 160) ; background-color: rgb(255 , 255 , 255)&quot;&gt;&lt;span style=&quot;color: rgba(0 , 0 , 0 , 0.85)&quot;&gt;&amp;nbsp; &amp;nbsp; &lt;/span&gt;&lt;span style=&quot;color: #9b2393&quot;&gt;case&lt;/span&gt;&lt;span style=&quot;color: rgba(0 , 0 , 0 , 0.85)&quot;&gt; &lt;/span&gt;accessBlocked&lt;/p&gt;&lt;br&gt;&lt;p style=&quot;margin: 0px ; font-stretch: normal ; font-size: 14px ; line-height: normal ; font-family: &amp;#34;menlo&amp;#34; ; color: rgb(15 , 104 , 160) ; background-color: rgb(255 , 255 , 255)&quot;&gt;&lt;span style=&quot;color: rgba(0 , 0 , 0 , 0.85)&quot;&gt;&amp;nbsp; &amp;nbsp; &lt;/span&gt;&lt;span style=&quot;color: #9b2393&quot;&gt;case&lt;/span&gt;&lt;span style=&quot;color: rgba(0 , 0 , 0 , 0.85)&quot;&gt; &lt;/span&gt;notMatchedEmail&lt;/p&gt;&lt;br&gt;&lt;p style=&quot;margin: 0px ; font-stretch: normal ; font-size: 14px ; line-height: normal ; font-family: &amp;#34;menlo&amp;#34; ; color: rgb(15 , 104 , 160) ; background-color: rgb(255 , 255 , 255)&quot;&gt;&lt;span style=&quot;color: rgba(0 , 0 , 0 , 0.85)&quot;&gt;&amp;nbsp; &amp;nbsp; &lt;/span&gt;&lt;span style=&quot;color: #9b2393&quot;&gt;case&lt;/span&gt;&lt;span style=&quot;color: rgba(0 , 0 , 0 , 0.85)&quot;&gt; &lt;/span&gt;alreadyBeingUsedByAnotherAccount&lt;/p&gt;&lt;br&gt;&lt;p style=&quot;margin: 0px ; font-stretch: normal ; font-size: 14px ; line-height: normal ; font-family: &amp;#34;menlo&amp;#34; ; color: rgb(15 , 104 , 160) ; background-color: rgb(255 , 255 , 255)&quot;&gt;&lt;span style=&quot;color: rgba(0 , 0 , 0 , 0.85)&quot;&gt;&amp;nbsp; &amp;nbsp; &lt;/span&gt;&lt;span style=&quot;color: #9b2393&quot;&gt;case&lt;/span&gt;&lt;span style=&quot;color: rgba(0 , 0 , 0 , 0.85)&quot;&gt; &lt;/span&gt;hasNoValidPassword&lt;/p&gt;&lt;br&gt;&lt;p style=&quot;margin: 0px ; margin-left: 4px&quot;&gt;&lt;span style=&quot;font-family: &amp;#34;menlo&amp;#34; ; font-size: 14px ; background-color: rgb(255 , 255 , 255) ; color: rgba(0 , 0 , 0 , 0.85)&quot;&gt;&amp;nbsp; &amp;nbsp;&amp;nbsp;&lt;/span&gt;&lt;span style=&quot;font-family: &amp;#34;menlo&amp;#34; ; font-size: 14px ; background-color: rgb(255 , 255 , 255) ; color: rgb(155 , 35 , 147)&quot;&gt;case&lt;/span&gt;&lt;span style=&quot;font-family: &amp;#34;menlo&amp;#34; ; font-size: 14px ; background-color: rgb(255 , 255 , 255) ; color: rgba(0 , 0 , 0 , 0.85)&quot;&gt; &lt;/span&gt;&lt;span style=&quot;color: rgb(15 , 104 , 160) ; font-family: &amp;#34;menlo&amp;#34; ; font-size: 14px ; background-color: rgb(255 , 255 , 255)&quot;&gt;invalidAuthCode&lt;/span&gt;&lt;/p&gt;" style="verticalAlign=top;align=left;overflow=fill;fontSize=12;fontFamily=Helvetica;html=1;" vertex="1" parent="WIyWlLk6GJQsqaUBKTNV-1">
          <mxGeometry x="870" y="610" width="380" height="390" as="geometry" />
        </mxCell>
        <mxCell id="xyc1oHUzZBv7kjJxeI7Q-43" style="edgeStyle=orthogonalEdgeStyle;rounded=0;orthogonalLoop=1;jettySize=auto;html=1;entryX=0;entryY=0.5;entryDx=0;entryDy=0;endArrow=classic;endFill=1;" edge="1" parent="WIyWlLk6GJQsqaUBKTNV-1" source="xyc1oHUzZBv7kjJxeI7Q-28" target="xyc1oHUzZBv7kjJxeI7Q-27">
          <mxGeometry relative="1" as="geometry" />
        </mxCell>
        <mxCell id="xyc1oHUzZBv7kjJxeI7Q-28" value="&lt;p style=&quot;margin: 0px ; margin-top: 4px ; text-align: center&quot;&gt;&lt;br&gt;&lt;b&gt;AuthenticationHelpoer&lt;/b&gt;&lt;/p&gt;&lt;hr size=&quot;1&quot;&gt;&lt;p style=&quot;margin: 0px ; font-stretch: normal ; font-size: 14px ; line-height: normal ; font-family: &amp;#34;menlo&amp;#34; ; background-color: rgb(255 , 255 , 255)&quot;&gt;&lt;br&gt;&lt;/p&gt;&lt;hr size=&quot;1&quot;&gt;&lt;p style=&quot;margin: 0px ; margin-left: 4px&quot;&gt;&lt;br&gt;&lt;/p&gt;" style="verticalAlign=top;align=left;overflow=fill;fontSize=12;fontFamily=Helvetica;html=1;" vertex="1" parent="WIyWlLk6GJQsqaUBKTNV-1">
          <mxGeometry x="510" y="920" width="190" height="40" as="geometry" />
        </mxCell>
        <mxCell id="xyc1oHUzZBv7kjJxeI7Q-29" value="&lt;p style=&quot;margin: 0px ; margin-top: 4px ; text-align: center&quot;&gt;&lt;br&gt;&lt;b&gt;FailureReasonResponseModel&lt;/b&gt;&lt;/p&gt;&lt;hr size=&quot;1&quot;&gt;&lt;p style=&quot;margin: 0px ; font-stretch: normal ; font-size: 14px ; line-height: normal ; font-family: &amp;#34;menlo&amp;#34; ; background-color: rgb(255 , 255 , 255)&quot;&gt;&lt;/p&gt;&lt;p style=&quot;margin: 0px ; font-stretch: normal ; font-size: 14px ; line-height: normal ; font-family: &amp;#34;menlo&amp;#34; ; color: rgb(15 , 104 , 160) ; background-color: rgb(255 , 255 , 255)&quot;&gt;&lt;span style=&quot;color: rgba(0 , 0 , 0 , 0.85)&quot;&gt;&amp;nbsp;&lt;/span&gt;detailCode&lt;span style=&quot;color: rgba(0 , 0 , 0 , 0.85)&quot;&gt;: &lt;/span&gt;&lt;span style=&quot;color: #3900a0&quot;&gt;String&lt;/span&gt;&lt;span style=&quot;color: rgba(0 , 0 , 0 , 0.85)&quot;&gt;?&lt;/span&gt;&lt;/p&gt;&lt;p style=&quot;margin: 0px ; font-stretch: normal ; line-height: normal&quot;&gt;&lt;span style=&quot;background-color: rgb(248 , 249 , 250)&quot;&gt;&amp;nbsp; &amp;nbsp;&lt;/span&gt;&lt;span style=&quot;color: rgb(15 , 104 , 160) ; font-family: &amp;#34;menlo&amp;#34; ; font-size: 14px ; background-color: rgb(255 , 255 , 255)&quot;&gt;message&lt;/span&gt;&lt;font face=&quot;menlo&quot;&gt;&lt;span style=&quot;color: rgba(0 , 0 , 0 , 0.85) ; font-size: 14px ; background-color: rgb(255 , 255 , 255)&quot;&gt;: &lt;/span&gt;&lt;/font&gt;&lt;span style=&quot;color: rgb(57 , 0 , 160) ; font-family: &amp;#34;menlo&amp;#34; ; font-size: 14px ; background-color: rgb(255 , 255 , 255)&quot;&gt;String&lt;/span&gt;&lt;font face=&quot;menlo&quot;&gt;&lt;span style=&quot;color: rgba(0 , 0 , 0 , 0.85) ; font-size: 14px ; background-color: rgb(255 , 255 , 255)&quot;&gt;?&lt;/span&gt;&lt;/font&gt;&lt;/p&gt;&lt;p style=&quot;margin: 0px ; margin-left: 4px&quot;&gt;&lt;span style=&quot;background-color: rgb(248 , 249 , 250)&quot;&gt;&amp;nbsp;&lt;/span&gt;&lt;span style=&quot;font-family: &amp;#34;menlo&amp;#34; ; font-size: 14px ; background-color: rgb(255 , 255 , 255) ; color: rgb(15 , 104 , 160)&quot;&gt;data&lt;/span&gt;&lt;span style=&quot;color: rgba(0 , 0 , 0 , 0.85) ; font-family: &amp;#34;menlo&amp;#34; ; font-size: 14px ; background-color: rgb(255 , 255 , 255)&quot;&gt;: [&lt;/span&gt;&lt;span style=&quot;font-family: &amp;#34;menlo&amp;#34; ; font-size: 14px ; background-color: rgb(255 , 255 , 255) ; color: rgb(57 , 0 , 160)&quot;&gt;String&lt;/span&gt;&lt;span style=&quot;color: rgba(0 , 0 , 0 , 0.85) ; font-family: &amp;#34;menlo&amp;#34; ; font-size: 14px ; background-color: rgb(255 , 255 , 255)&quot;&gt;: &lt;/span&gt;&lt;span style=&quot;font-family: &amp;#34;menlo&amp;#34; ; font-size: 14px ; background-color: rgb(255 , 255 , 255) ; color: rgb(155 , 35 , 147)&quot;&gt;Any&lt;/span&gt;&lt;span style=&quot;color: rgba(0 , 0 , 0 , 0.85) ; font-family: &amp;#34;menlo&amp;#34; ; font-size: 14px ; background-color: rgb(255 , 255 , 255)&quot;&gt;]?&lt;/span&gt;&lt;br&gt;&lt;/p&gt;" style="verticalAlign=top;align=left;overflow=fill;fontSize=12;fontFamily=Helvetica;html=1;" vertex="1" parent="WIyWlLk6GJQsqaUBKTNV-1">
          <mxGeometry x="120" y="360" width="190" height="110" as="geometry" />
        </mxCell>
        <mxCell id="xyc1oHUzZBv7kjJxeI7Q-33" value="" style="edgeStyle=orthogonalEdgeStyle;rounded=0;orthogonalLoop=1;jettySize=auto;html=1;endArrow=classic;endFill=1;" edge="1" parent="WIyWlLk6GJQsqaUBKTNV-1" source="xyc1oHUzZBv7kjJxeI7Q-30" target="xyc1oHUzZBv7kjJxeI7Q-25">
          <mxGeometry relative="1" as="geometry" />
        </mxCell>
        <mxCell id="xyc1oHUzZBv7kjJxeI7Q-30" value="&lt;p style=&quot;margin: 0px ; margin-top: 4px ; text-align: center&quot;&gt;&lt;br&gt;&lt;b&gt;Networking.Response&amp;lt;T&amp;gt;&lt;/b&gt;&lt;/p&gt;&lt;hr size=&quot;1&quot;&gt;&lt;p style=&quot;margin: 0px ; font-stretch: normal ; font-size: 14px ; line-height: normal ; font-family: &amp;#34;menlo&amp;#34; ; background-color: rgb(255 , 255 , 255)&quot;&gt;&lt;/p&gt;&lt;p style=&quot;margin: 0px ; font-stretch: normal ; font-size: 14px ; line-height: normal ; font-family: &amp;#34;menlo&amp;#34; ; color: rgba(0 , 0 , 0 , 0.85) ; background-color: rgb(255 , 255 , 255)&quot;&gt;&amp;nbsp;&lt;span style=&quot;color: #9b2393&quot;&gt;case&lt;/span&gt; &lt;span style=&quot;color: #0f68a0&quot;&gt;success&lt;/span&gt;(T)&lt;/p&gt;&lt;p style=&quot;margin: 0px ; font-stretch: normal ; font-size: 14px ; line-height: normal ; font-family: &amp;#34;menlo&amp;#34; ; color: rgb(28 , 70 , 74) ; background-color: rgb(255 , 255 , 255)&quot;&gt;&lt;span style=&quot;color: rgba(0 , 0 , 0 , 0.85)&quot;&gt;&amp;nbsp;&lt;/span&gt;&lt;span style=&quot;color: #9b2393&quot;&gt;case&lt;/span&gt;&lt;span style=&quot;color: rgba(0 , 0 , 0 , 0.85)&quot;&gt; &lt;/span&gt;&lt;span style=&quot;color: #0f68a0&quot;&gt;failure&lt;/span&gt;&lt;span style=&quot;color: rgba(0 , 0 , 0 , 0.85)&quot;&gt;(&lt;/span&gt;FailureResult&lt;span style=&quot;color: rgba(0 , 0 , 0 , 0.85)&quot;&gt;)&lt;/span&gt;&lt;/p&gt;&lt;div&gt;&lt;span style=&quot;color: rgba(0 , 0 , 0 , 0.85)&quot;&gt;&lt;br&gt;&lt;/span&gt;&lt;/div&gt;&lt;div&gt;&lt;p style=&quot;margin: 0px ; font-stretch: normal ; font-size: 14px ; line-height: normal ; font-family: &amp;#34;menlo&amp;#34; ; color: rgba(0 , 0 , 0 , 0.85) ; background-color: rgb(255 , 255 , 255)&quot;&gt;&amp;nbsp;&lt;span style=&quot;color: #9b2393&quot;&gt;var&lt;/span&gt; &lt;span style=&quot;color: #0f68a0&quot;&gt;success&lt;/span&gt;: T?&lt;/p&gt;&lt;p style=&quot;margin: 0px ; font-stretch: normal ; line-height: normal ; min-height: 16px&quot;&gt;&lt;span style=&quot;background-color: rgb(248 , 249 , 250)&quot;&gt;&amp;nbsp; &amp;nbsp;&lt;/span&gt;&lt;span style=&quot;font-family: &amp;#34;menlo&amp;#34; ; font-size: 14px ; background-color: rgb(255 , 255 , 255) ; color: rgb(155 , 35 , 147)&quot;&gt;var&lt;/span&gt; &lt;span style=&quot;font-family: &amp;#34;menlo&amp;#34; ; font-size: 14px ; background-color: rgb(255 , 255 , 255) ; color: rgb(15 , 104 , 160)&quot;&gt;failure&lt;/span&gt;&lt;span style=&quot;font-family: &amp;#34;menlo&amp;#34; ; font-size: 14px ; background-color: rgb(255 , 255 , 255) ; color: rgba(0 , 0 , 0 , 0.85)&quot;&gt;: &lt;/span&gt;&lt;span style=&quot;font-family: &amp;#34;menlo&amp;#34; ; font-size: 14px ; background-color: rgb(255 , 255 , 255) ; color: rgb(28 , 70 , 74)&quot;&gt;FailureResult&lt;/span&gt;&lt;span style=&quot;font-family: &amp;#34;menlo&amp;#34; ; font-size: 14px ; background-color: rgb(255 , 255 , 255) ; color: rgba(0 , 0 , 0 , 0.85)&quot;&gt;?&lt;/span&gt;&lt;br&gt;&lt;/p&gt;&lt;/div&gt;" style="verticalAlign=top;align=left;overflow=fill;fontSize=12;fontFamily=Helvetica;html=1;" vertex="1" parent="WIyWlLk6GJQsqaUBKTNV-1">
          <mxGeometry x="20" y="120" width="300" height="140" as="geometry" />
        </mxCell>
        <mxCell id="xyc1oHUzZBv7kjJxeI7Q-31" value="&lt;p style=&quot;margin: 0px ; margin-top: 4px ; text-align: center&quot;&gt;&lt;br&gt;&lt;/p&gt;&lt;span style=&quot;text-align: center&quot;&gt;&lt;b&gt;UserAuthenticationAuthCodeFailureResponseModel&lt;/b&gt;&lt;/span&gt;&lt;p style=&quot;margin: 0px ; font-stretch: normal ; font-size: 14px ; line-height: normal ; font-family: &amp;#34;menlo&amp;#34; ; background-color: rgb(255 , 255 , 255)&quot;&gt;&lt;br&gt;&lt;/p&gt;&lt;hr size=&quot;1&quot;&gt;&lt;p style=&quot;margin: 0px ; margin-left: 4px&quot;&gt;&lt;br&gt;&lt;/p&gt;" style="verticalAlign=top;align=left;overflow=fill;fontSize=12;fontFamily=Helvetica;html=1;" vertex="1" parent="WIyWlLk6GJQsqaUBKTNV-1">
          <mxGeometry x="55" y="540" width="320" height="50" as="geometry" />
        </mxCell>
        <mxCell id="xyc1oHUzZBv7kjJxeI7Q-41" style="edgeStyle=orthogonalEdgeStyle;rounded=0;orthogonalLoop=1;jettySize=auto;html=1;entryX=1;entryY=0.5;entryDx=0;entryDy=0;endArrow=classic;endFill=1;" edge="1" parent="WIyWlLk6GJQsqaUBKTNV-1" source="xyc1oHUzZBv7kjJxeI7Q-39" target="xyc1oHUzZBv7kjJxeI7Q-29">
          <mxGeometry relative="1" as="geometry" />
        </mxCell>
        <mxCell id="xyc1oHUzZBv7kjJxeI7Q-58" style="edgeStyle=orthogonalEdgeStyle;rounded=0;orthogonalLoop=1;jettySize=auto;html=1;entryX=0.5;entryY=1;entryDx=0;entryDy=0;endArrow=classic;endFill=1;" edge="1" parent="WIyWlLk6GJQsqaUBKTNV-1" source="xyc1oHUzZBv7kjJxeI7Q-39" target="xyc1oHUzZBv7kjJxeI7Q-25">
          <mxGeometry relative="1" as="geometry">
            <Array as="points">
              <mxPoint x="540" y="280" />
              <mxPoint x="540" y="280" />
            </Array>
          </mxGeometry>
        </mxCell>
        <mxCell id="xyc1oHUzZBv7kjJxeI7Q-39" value="&lt;p style=&quot;margin: 0px ; margin-top: 4px ; text-align: center&quot;&gt;&lt;br&gt;&lt;/p&gt;&lt;span style=&quot;text-align: center&quot;&gt;&lt;b&gt;&amp;nbsp; &amp;nbsp; &amp;nbsp; &amp;nbsp; &amp;nbsp; &amp;nbsp; &amp;nbsp; &amp;nbsp; &amp;nbsp; &amp;nbsp;Networking&lt;/b&gt;&lt;/span&gt;&lt;p style=&quot;margin: 0px ; font-stretch: normal ; font-size: 14px ; line-height: normal ; font-family: &amp;#34;menlo&amp;#34; ; background-color: rgb(255 , 255 , 255)&quot;&gt;&lt;br&gt;&lt;/p&gt;&lt;hr size=&quot;1&quot;&gt;&lt;p style=&quot;margin: 0px ; margin-left: 4px&quot;&gt;&lt;br&gt;&lt;/p&gt;" style="verticalAlign=top;align=left;overflow=fill;fontSize=12;fontFamily=Helvetica;html=1;" vertex="1" parent="WIyWlLk6GJQsqaUBKTNV-1">
          <mxGeometry x="445" y="390" width="190" height="50" as="geometry" />
        </mxCell>
        <mxCell id="xyc1oHUzZBv7kjJxeI7Q-46" style="edgeStyle=orthogonalEdgeStyle;rounded=0;orthogonalLoop=1;jettySize=auto;html=1;entryX=0.679;entryY=1.006;entryDx=0;entryDy=0;entryPerimeter=0;endArrow=classic;endFill=1;" edge="1" parent="WIyWlLk6GJQsqaUBKTNV-1" source="xyc1oHUzZBv7kjJxeI7Q-44" target="xyc1oHUzZBv7kjJxeI7Q-14">
          <mxGeometry relative="1" as="geometry" />
        </mxCell>
        <mxCell id="xyc1oHUzZBv7kjJxeI7Q-44" value="&lt;p style=&quot;margin: 0px ; margin-top: 4px ; text-align: center&quot;&gt;&lt;br&gt;&lt;/p&gt;&lt;span style=&quot;text-align: center&quot;&gt;&lt;b&gt;&amp;nbsp;CommunityNicknameInteractor&lt;/b&gt;&lt;/span&gt;&lt;p style=&quot;margin: 0px ; font-stretch: normal ; font-size: 14px ; line-height: normal ; font-family: &amp;#34;menlo&amp;#34; ; background-color: rgb(255 , 255 , 255)&quot;&gt;&lt;br&gt;&lt;/p&gt;&lt;hr size=&quot;1&quot;&gt;&lt;p style=&quot;margin: 0px ; margin-left: 4px&quot;&gt;&lt;br&gt;&lt;/p&gt;" style="verticalAlign=top;align=left;overflow=fill;fontSize=12;fontFamily=Helvetica;html=1;" vertex="1" parent="WIyWlLk6GJQsqaUBKTNV-1">
          <mxGeometry x="1720" y="890" width="190" height="50" as="geometry" />
        </mxCell>
        <mxCell id="xyc1oHUzZBv7kjJxeI7Q-47" style="edgeStyle=orthogonalEdgeStyle;rounded=0;orthogonalLoop=1;jettySize=auto;html=1;endArrow=classic;endFill=1;" edge="1" parent="WIyWlLk6GJQsqaUBKTNV-1" source="xyc1oHUzZBv7kjJxeI7Q-45" target="xyc1oHUzZBv7kjJxeI7Q-14">
          <mxGeometry relative="1" as="geometry">
            <Array as="points">
              <mxPoint x="1500" y="835" />
            </Array>
          </mxGeometry>
        </mxCell>
        <mxCell id="xyc1oHUzZBv7kjJxeI7Q-45" value="&lt;p style=&quot;margin: 0px ; margin-top: 4px ; text-align: center&quot;&gt;&lt;br&gt;&lt;/p&gt;&lt;span style=&quot;text-align: center&quot;&gt;&lt;b&gt;&amp;nbsp;CommunityReadInteractor&lt;/b&gt;&lt;/span&gt;&lt;p style=&quot;margin: 0px ; font-stretch: normal ; font-size: 14px ; line-height: normal ; font-family: &amp;#34;menlo&amp;#34; ; background-color: rgb(255 , 255 , 255)&quot;&gt;&lt;br&gt;&lt;/p&gt;&lt;hr size=&quot;1&quot;&gt;&lt;p style=&quot;margin: 0px ; margin-left: 4px&quot;&gt;&lt;br&gt;&lt;/p&gt;" style="verticalAlign=top;align=left;overflow=fill;fontSize=12;fontFamily=Helvetica;html=1;" vertex="1" parent="WIyWlLk6GJQsqaUBKTNV-1">
          <mxGeometry x="1290" y="890" width="190" height="50" as="geometry" />
        </mxCell>
        <mxCell id="xyc1oHUzZBv7kjJxeI7Q-56" style="edgeStyle=orthogonalEdgeStyle;rounded=0;orthogonalLoop=1;jettySize=auto;html=1;endArrow=classic;endFill=1;" edge="1" parent="WIyWlLk6GJQsqaUBKTNV-1" source="xyc1oHUzZBv7kjJxeI7Q-48" target="xyc1oHUzZBv7kjJxeI7Q-27">
          <mxGeometry relative="1" as="geometry" />
        </mxCell>
        <mxCell id="xyc1oHUzZBv7kjJxeI7Q-48" value="&lt;p style=&quot;margin: 0px ; margin-top: 4px ; text-align: center&quot;&gt;&lt;br&gt;&lt;/p&gt;&lt;span style=&quot;text-align: center&quot;&gt;&lt;b&gt;&amp;nbsp;LinkWithSocialProviderManagerTests&lt;/b&gt;&lt;/span&gt;&lt;p style=&quot;margin: 0px ; font-stretch: normal ; font-size: 14px ; line-height: normal ; font-family: &amp;#34;menlo&amp;#34; ; background-color: rgb(255 , 255 , 255)&quot;&gt;&lt;br&gt;&lt;/p&gt;&lt;hr size=&quot;1&quot;&gt;&lt;p style=&quot;margin: 0px ; margin-left: 4px&quot;&gt;&lt;br&gt;&lt;/p&gt;" style="verticalAlign=top;align=left;overflow=fill;fontSize=12;fontFamily=Helvetica;html=1;" vertex="1" parent="WIyWlLk6GJQsqaUBKTNV-1">
          <mxGeometry x="990" y="1080" width="230" height="50" as="geometry" />
        </mxCell>
        <mxCell id="xyc1oHUzZBv7kjJxeI7Q-53" style="edgeStyle=orthogonalEdgeStyle;rounded=0;orthogonalLoop=1;jettySize=auto;html=1;endArrow=classic;endFill=1;" edge="1" parent="WIyWlLk6GJQsqaUBKTNV-1" source="xyc1oHUzZBv7kjJxeI7Q-49">
          <mxGeometry relative="1" as="geometry">
            <mxPoint x="870" y="820" as="targetPoint" />
            <Array as="points">
              <mxPoint x="800" y="1015" />
              <mxPoint x="800" y="820" />
            </Array>
          </mxGeometry>
        </mxCell>
        <mxCell id="xyc1oHUzZBv7kjJxeI7Q-49" value="&lt;p style=&quot;margin: 0px ; margin-top: 4px ; text-align: center&quot;&gt;&lt;b&gt;SignUpViewController&lt;/b&gt;&lt;/p&gt;" style="verticalAlign=top;align=left;overflow=fill;fontSize=12;fontFamily=Helvetica;html=1;" vertex="1" parent="WIyWlLk6GJQsqaUBKTNV-1">
          <mxGeometry x="510" y="990" width="190" height="50" as="geometry" />
        </mxCell>
        <mxCell id="xyc1oHUzZBv7kjJxeI7Q-59" style="edgeStyle=orthogonalEdgeStyle;rounded=0;orthogonalLoop=1;jettySize=auto;html=1;entryX=0.909;entryY=1.005;entryDx=0;entryDy=0;entryPerimeter=0;endArrow=classic;endFill=1;" edge="1" parent="WIyWlLk6GJQsqaUBKTNV-1" source="xyc1oHUzZBv7kjJxeI7Q-50" target="xyc1oHUzZBv7kjJxeI7Q-27">
          <mxGeometry relative="1" as="geometry" />
        </mxCell>
        <mxCell id="xyc1oHUzZBv7kjJxeI7Q-50" value="&lt;p style=&quot;margin: 0px ; margin-top: 4px ; text-align: center&quot;&gt;&lt;b&gt;LinkWithSocialProviderManager&lt;/b&gt;&lt;/p&gt;" style="verticalAlign=top;align=left;overflow=fill;fontSize=12;fontFamily=Helvetica;html=1;" vertex="1" parent="WIyWlLk6GJQsqaUBKTNV-1">
          <mxGeometry x="1240" y="1080" width="190" height="50" as="geometry" />
        </mxCell>
        <mxCell id="xyc1oHUzZBv7kjJxeI7Q-62" style="edgeStyle=orthogonalEdgeStyle;rounded=0;orthogonalLoop=1;jettySize=auto;html=1;entryX=0.213;entryY=1.005;entryDx=0;entryDy=0;entryPerimeter=0;endArrow=classic;endFill=1;" edge="1" parent="WIyWlLk6GJQsqaUBKTNV-1" source="xyc1oHUzZBv7kjJxeI7Q-51" target="xyc1oHUzZBv7kjJxeI7Q-27">
          <mxGeometry relative="1" as="geometry" />
        </mxCell>
        <mxCell id="xyc1oHUzZBv7kjJxeI7Q-51" value="&lt;p style=&quot;margin: 0px ; margin-top: 4px ; text-align: center&quot;&gt;&lt;br&gt;&lt;/p&gt;&lt;span style=&quot;text-align: center&quot;&gt;&lt;b&gt;&amp;nbsp;DevUserStatusChangeTerminateAccountLinkWithKakao&lt;/b&gt;&lt;/span&gt;&lt;p style=&quot;margin: 0px ; font-stretch: normal ; font-size: 14px ; line-height: normal ; font-family: &amp;#34;menlo&amp;#34; ; background-color: rgb(255 , 255 , 255)&quot;&gt;&lt;br&gt;&lt;/p&gt;&lt;hr size=&quot;1&quot;&gt;&lt;p style=&quot;margin: 0px ; margin-left: 4px&quot;&gt;&lt;br&gt;&lt;/p&gt;" style="verticalAlign=top;align=left;overflow=fill;fontSize=12;fontFamily=Helvetica;html=1;" vertex="1" parent="WIyWlLk6GJQsqaUBKTNV-1">
          <mxGeometry x="580" y="1090" width="340" height="50" as="geometry" />
        </mxCell>
        <mxCell id="xyc1oHUzZBv7kjJxeI7Q-57" style="edgeStyle=orthogonalEdgeStyle;rounded=0;orthogonalLoop=1;jettySize=auto;html=1;entryX=0.5;entryY=1;entryDx=0;entryDy=0;endArrow=classic;endFill=1;" edge="1" parent="WIyWlLk6GJQsqaUBKTNV-1" source="xyc1oHUzZBv7kjJxeI7Q-52" target="xyc1oHUzZBv7kjJxeI7Q-14">
          <mxGeometry relative="1" as="geometry" />
        </mxCell>
        <mxCell id="xyc1oHUzZBv7kjJxeI7Q-52" value="&lt;p style=&quot;margin: 0px ; margin-top: 4px ; text-align: center&quot;&gt;&lt;br&gt;&lt;/p&gt;&lt;span style=&quot;text-align: center&quot;&gt;&lt;b&gt;&amp;nbsp;CommunityNicknameInteractorTests&lt;/b&gt;&lt;/span&gt;&lt;p style=&quot;margin: 0px ; font-stretch: normal ; font-size: 14px ; line-height: normal ; font-family: &amp;#34;menlo&amp;#34; ; background-color: rgb(255 , 255 , 255)&quot;&gt;&lt;br&gt;&lt;/p&gt;&lt;p style=&quot;margin: 0px ; margin-left: 4px&quot;&gt;&lt;br&gt;&lt;/p&gt;" style="verticalAlign=top;align=left;overflow=fill;fontSize=12;fontFamily=Helvetica;html=1;" vertex="1" parent="WIyWlLk6GJQsqaUBKTNV-1">
          <mxGeometry x="1490" y="890" width="220" height="50" as="geometry" />
        </mxCell>
      </root>
    </mxGraphModel>
  </diagram>
</mxfile>
